<?xml version="1.0" standalone="no"?>
<!DOCTYPE svg PUBLIC "-//W3C//DTD SVG 20010904//EN"
 "http://www.w3.org/TR/2001/REC-SVG-20010904/DTD/svg10.dtd">
<svg version="1.0" xmlns="http://www.w3.org/2000/svg"
 width="180.000000pt" height="90.000000pt" viewBox="0 0 180.000000 90.000000"
 preserveAspectRatio="xMidYMid meet">

<g transform="translate(0.000000,90.000000) scale(0.100000,-0.100000)"
fill="#000000" stroke="none">
<path d="M170 691 c-99 -12 -110 -17 -110 -54 0 -25 9 -40 41 -67 38 -33 43
-43 60 -125 57 -269 77 -288 294 -288 138 0 197 11 238 43 37 30 83 131 106
233 24 109 38 127 101 127 50 0 90 -26 90 -58 0 -41 49 -203 73 -245 40 -68
79 -87 201 -99 117 -12 230 -1 273 27 36 24 72 110 96 232 21 103 24 109 70
154 50 51 55 65 35 92 -30 40 -430 47 -645 12 -113 -19 -263 -19 -383 0 -111
17 -446 27 -540 16z"/>
</g>
</svg>
